<svg xmlns="http://www.w3.org/2000/svg" viewBox="0 0 48 48"><g display="none"><rect width="48" height="48" fill="#fff" color="#000" overflow="visible" style="isolation:auto;mix-blend-mode:normal"/><rect style="isolation:auto;mix-blend-mode:normal" width="48" height="48" x="-46.987" fill="#fff" color="#000" overflow="visible"/><rect width="48" height="48" x="-102.987" fill="#fff" color="#000" overflow="visible" style="isolation:auto;mix-blend-mode:normal"/><rect style="isolation:auto;mix-blend-mode:normal" width="48" height="48" y="57.592" fill="#fff" color="#000" overflow="visible"/><rect width="48" height="48" x="-46.987" y="57.592" fill="#fff" color="#000" overflow="visible" style="isolation:auto;mix-blend-mode:normal"/><rect style="isolation:auto;mix-blend-mode:normal" width="48" height="48" x="-102.987" y="57.592" fill="#fff" color="#000" overflow="visible"/><rect width="48" height="48" y="117.592" fill="#fff" color="#000" overflow="visible" style="isolation:auto;mix-blend-mode:normal"/><rect style="isolation:auto;mix-blend-mode:normal" width="48" height="48" x="-46.987" y="117.592" fill="#fff" color="#000" overflow="visible"/><rect width="48" height="48" x="-102.987" y="117.592" fill="#fff" color="#000" overflow="visible" style="isolation:auto;mix-blend-mode:normal"/><rect style="isolation:auto;mix-blend-mode:normal" width="48" height="48" y="173.592" fill="#fff" color="#000" overflow="visible"/><rect width="48" height="48" x="-46.987" y="173.592" fill="#fff" color="#000" overflow="visible" style="isolation:auto;mix-blend-mode:normal"/><rect style="isolation:auto;mix-blend-mode:normal" width="48" height="48" x="-102.987" y="173.592" fill="#fff" color="#000" overflow="visible"/><rect width="48" height="48" y="231.592" fill="#fff" color="#000" overflow="visible" style="isolation:auto;mix-blend-mode:normal"/><rect style="isolation:auto;mix-blend-mode:normal" width="48" height="48" x="-46.987" y="231.592" fill="#fff" color="#000" overflow="visible"/><rect width="48" height="48" x="-102.987" y="231.592" fill="#fff" color="#000" overflow="visible" style="isolation:auto;mix-blend-mode:normal"/></g><g transform="translate(-955 -1410.362)"><path fill="#242730" style="line-height:normal;text-indent:0;text-align:start;text-decoration-line:none;text-decoration-style:solid;text-decoration-color:#000;text-transform:none;block-progression:tb;isolation:auto;mix-blend-mode:normal" d="m 981,1412.3622 c -0.554,0 -1,0.446 -1,1 l 0,1 c 0,0.554 0.446,1 1,1 l 10.0039,0 0.016,6.4844 c 0,0.8253 0.6708,1.4938 1.4961,1.4961 l 6.4844,0.017 0,28.502 c 0,0.8569 -0.6431,1.5 -1.5,1.5 l -23,0 c -0.857,0 -1.5,-0.6431 -1.5,-1.5 l 0,-1.5 c 0,-0.554 -0.446,-1 -1,-1 l -1,0 c -0.554,0 -1,0.446 -1,1 l 0,1.5 c 0,2.4671 2.0329,4.5 4.5,4.5 l 23,0 c 2.467,0 4.5,-2.0329 4.5,-4.5 l 0,-30.4863 c -10e-5,-0.3978 -0.1582,-0.7793 -0.4395,-1.0606 l -7.5137,-7.5136 c -0.2812,-0.2814 -0.6627,-0.4394 -1.0605,-0.4395 z m -11,21 c 0,0.554 0.446,1 1,1 l 1,0 c 0.554,0 1,-0.446 1,-1 l 0,-10 c 0,-0.554 -0.446,-1 -1,-1 l -1,0 c -0.554,0 -1,0.446 -1,1 z" color="#000" font-family="sans-serif" font-weight="400" overflow="visible"/><path fill="#11c111" style="line-height:normal;text-indent:0;text-align:start;text-decoration-line:none;text-decoration-style:solid;text-decoration-color:#000;text-transform:none;block-progression:tb;isolation:auto;mix-blend-mode:normal" d="m 974.5,408 c -2.467,0 -4.5,2.0329 -4.5,4.5 l 0,2.5 c 0,0.554 0.446,1 1,1 l 1,0 c 0.554,0 1,-0.446 1,-1 l 0,-2.5 c 0,-0.8569 0.6431,-1.5 1.5,-1.5 l 2.5,0 c 0.554,0 1,-0.446 1,-1 l 0,-1 c 0,-0.554 -0.446,-1 -1,-1 l -2.5,0 z M 959,432 c -1.108,0 -2,0.892 -2,2 l 0,7 c 0,1.108 0.892,2 2,2 l 25,0 c 1.108,0 2,-0.892 2,-2 l 0,-7 c 0,-1.108 -0.892,-2 -2,-2 l -25,0 z m 7.00977,2.58594 c 0.4488,0 0.87763,0.10419 1.33593,0.30468 0.1146,-0.21 0.22936,-0.29687 0.43946,-0.29687 0.296,0 0.41992,0.12429 0.41992,0.52539 l 0.01,1.21289 c 0,0.401 -0.095,0.54492 -0.48632,0.54492 -0.2865,0 -0.39252,-0.14345 -0.47852,-0.43945 -0.1528,-0.5443 -0.43945,-0.83008 -1.12695,-0.83008 -0.9453,0 -1.48047,0.64933 -1.48047,1.89063 0,1.2318 0.53533,1.89062 1.49023,1.89062 0.8784,0 1.40402,-0.65039 1.82422,-0.65039 0.2387,0 0.42969,0.22956 0.42969,0.53516 0,0.4965 -1.06061,1.14648 -2.34961,1.14648 -1.6424,0 -2.73047,-1.20307 -2.73047,-2.92187 0,-1.6328 1.10853,-2.91211 2.70313,-2.91211 z m 5.55273,0 c 0.4297,0 0.82166,0.0859 1.22266,0.25781 0.1051,-0.2289 0.21876,-0.25781 0.47656,-0.25781 0.3055,0 0.38258,0.0969 0.39258,0.49804 l 0.0176,0.89649 0,0.0488 c 0,0.3533 -0.11367,0.49609 -0.47657,0.49609 -0.3819,0 -0.42055,-0.21025 -0.53515,-0.43945 -0.191,-0.3724 -0.52581,-0.58203 -0.97461,-0.58203 -0.5824,0 -0.93555,0.3056 -0.93555,0.6875 0,0.487 0.5356,0.53387 1.5,0.73437 1.1554,0.2387 1.69922,0.75577 1.69922,1.70117 0,1.1458 -0.80251,1.78516 -2.25391,1.78516 -0.4775,0 -0.91534,-0.049 -1.40234,-0.23047 -0.105,0.1812 -0.22945,0.23047 -0.43945,0.23047 -0.382,0 -0.52516,-0.11436 -0.53516,-0.50586 l -0.0293,-1.09961 0,-0.0469 c 0,-0.401 0.13389,-0.55469 0.52539,-0.55469 0.3628,0 0.41013,0.26736 0.58203,0.60156 0.2482,0.487 0.66863,0.7168 1.29883,0.7168 0.5634,0 0.90821,-0.23854 0.90821,-0.67774 0,-0.6016 -0.53554,-0.602 -1.58594,-0.8789 -1.0503,-0.2769 -1.60352,-0.63088 -1.60352,-1.57618 0,-1.05999 0.87844,-1.80468 2.14844,-1.80468 z m 5.74414,0 c 0.4297,0 0.82156,0.0859 1.22266,0.25781 0.105,-0.2289 0.21876,-0.25781 0.47656,-0.25781 0.3055,0 0.38258,0.0969 0.39258,0.49804 l 0.0176,0.89649 0,0.0488 c 0,0.3533 -0.11377,0.49609 -0.47657,0.49609 -0.382,0 -0.42055,-0.21025 -0.53515,-0.43945 -0.1909,-0.3724 -0.52581,-0.58203 -0.97461,-0.58203 -0.5825,0 -0.93555,0.3056 -0.93555,0.6875 0,0.487 0.5355,0.53387 1.5,0.73437 1.1553,0.2387 1.69922,0.75577 1.69922,1.70117 0,1.1458 -0.80251,1.78516 -2.25391,1.78516 -0.4774,0 -0.91534,-0.049 -1.40234,-0.23047 -0.1051,0.1812 -0.22935,0.23047 -0.43945,0.23047 -0.3819,0 -0.52516,-0.11436 -0.53516,-0.50586 l -0.0293,-1.09961 0,-0.0469 c 0,-0.401 0.13389,-0.55469 0.52539,-0.55469 0.3629,0 0.41014,0.26736 0.58203,0.60156 0.2483,0.487 0.66863,0.7168 1.29883,0.7168 0.5634,0 0.90821,-0.23854 0.90821,-0.67774 0,-0.6016 -0.53564,-0.602 -1.58594,-0.8789 -1.0504,-0.2769 -1.60352,-0.63088 -1.60352,-1.57618 0,-1.05999 0.87854,-1.80468 2.14844,-1.80468 z" color="#000" font-family="sans-serif" font-weight="400" overflow="visible" transform="translate(0 1004.362)"/></g></svg>