<svg xmlns="http://www.w3.org/2000/svg" viewBox="0 0 48 48"><g data-name="Layer 2"><g data-name="HTML"><rect width="48" height="48" fill="none" data-name="Safe Area"/><g data-name="Folder Icon"><path fill="#fe9302" d="M37.29,44H10.72A1.7,1.7,0,0,1,9,42.32H9V5.68A1.7,1.7,0,0,1,10.71,4H29.24a1.7,1.7,0,0,1,1.26.54l8,8.07A1.65,1.65,0,0,1,39,13.75V42.32A1.7,1.7,0,0,1,37.29,44Z" data-name="Path 245"/><path fill="#fff" d="M28.2,7.7a.93.93,0,0,1,.91-.94,1,1,0,0,1,.68.28l6.13,6.13a.92.92,0,0,1,0,1.32.94.94,0,0,1-.66.27H29.14a.93.93,0,0,1-.94-.93Z" data-name="Path 246"/></g><path fill="#fff" d="M12.94 36.3v1.31H11.58V36.3zM19 31.31v6.3H17.73V34.87H15v2.74H13.78v-6.3H15v2.55h2.7V31.31zM24.42 31.31v1H22.68v5.3H21.42v-5.3H19.69v-1zM31.91 31.38v6.23H30.66V33.27l-1.6 4.34H28l-1.6-4.33v4.33H25.12V31.38h1.52l1.89 4.69 1.86-4.69zM34.3 36.65h2.12v1H33.05v-6.3H34.3z" data-name="HTML"/></g></g></svg>