<svg xmlns="http://www.w3.org/2000/svg" fill="none" viewBox="0 0 74 74"><path fill="url(#a)" d="M59.8451 0H14.3691C6.63715 0 0.369141 6.26801 0.369141 14V59.476C0.369141 67.208 6.63715 73.476 14.3691 73.476H59.8451C67.5771 73.476 73.8451 67.208 73.8451 59.476V14C73.8451 6.26801 67.5771 0 59.8451 0Z"/><path fill="#fff" d="M36.6113 50C36.4617 50.0002 36.3146 49.9617 36.1851 49.8884L34.8281 49.1011C34.6246 48.9905 34.7263 48.9516 34.7914 48.9287C35.0055 48.862 35.2105 48.77 35.4018 48.6546C35.418 48.6471 35.4359 48.6438 35.4538 48.6452C35.4716 48.6466 35.4888 48.6526 35.5035 48.6626L36.5452 49.2685C36.5644 49.2788 36.5859 49.2842 36.6077 49.2842C36.6296 49.2842 36.6511 49.2788 36.6703 49.2685L40.7342 46.9705C40.7533 46.9594 40.7691 46.9437 40.78 46.9248C40.7908 46.9059 40.7965 46.8845 40.7963 46.8628V42.2687C40.7964 42.2466 40.7907 42.2248 40.7796 42.2056C40.7686 42.1864 40.7525 42.1703 40.7332 42.159L36.6713 39.8669C36.6523 39.8562 36.6307 39.8505 36.6088 39.8505C36.5868 39.8505 36.5652 39.8562 36.5462 39.8669L32.4853 42.159C32.4658 42.17 32.4494 42.1858 32.438 42.2048C32.4266 42.2239 32.4205 42.2456 32.4202 42.2677V46.8618C32.4204 46.8836 32.4264 46.9048 32.4377 46.9236C32.4489 46.9423 32.465 46.9578 32.4843 46.9685L33.5982 47.5983C34.2025 47.8973 34.5717 47.5465 34.5717 47.1997V42.6603C34.5717 42.6452 34.5748 42.6302 34.5807 42.6162C34.5867 42.6022 34.5954 42.5896 34.6063 42.5789C34.6173 42.5683 34.6303 42.5598 34.6446 42.5541C34.659 42.5484 34.6743 42.5456 34.6897 42.5457H35.2055C35.2366 42.5457 35.2664 42.5577 35.2885 42.5792C35.3106 42.6007 35.3232 42.6298 35.3235 42.6603V47.1967C35.3235 47.9869 34.884 48.4394 34.1201 48.4394C33.8851 48.4394 33.6999 48.4394 33.1832 48.1903L32.1181 47.5923C31.9883 47.5184 31.8806 47.4124 31.8058 47.2849C31.731 47.1574 31.6917 47.0129 31.6919 46.8658V42.2716C31.6918 42.1247 31.7311 41.9804 31.8059 41.853C31.8807 41.7257 31.9884 41.6199 32.1181 41.5461L36.1871 39.2451C36.318 39.1749 36.4647 39.1382 36.6138 39.1382C36.763 39.1382 36.9097 39.1749 37.0406 39.2451L41.1096 41.5461C41.2394 41.6198 41.3472 41.7256 41.4222 41.8529C41.4972 41.9803 41.5367 42.1246 41.5368 42.2716V46.8658C41.5367 47.0129 41.4972 47.1575 41.4222 47.2849C41.3472 47.4124 41.2394 47.5184 41.1096 47.5923L37.0406 49.8914C36.9099 49.9643 36.7617 50.0018 36.6113 50Z"/><path fill="#fff" d="M37.8673 46.834C36.0891 46.834 35.7158 46.0367 35.7158 45.364 35.7158 45.3489 35.7189 45.3339 35.7248 45.3199 35.7308 45.306 35.7395 45.2933 35.7504 45.2826 35.7614 45.272 35.7744 45.2636 35.7887 45.2579 35.8031 45.2522 35.8184 45.2493 35.8338 45.2494H36.3587C36.3873 45.2492 36.4149 45.2592 36.4365 45.2775 36.458 45.2959 36.472 45.3213 36.4757 45.3491 36.5551 45.8723 36.7921 46.1374 37.8673 46.1374 38.7228 46.1374 39.088 45.947 39.088 45.5026 39.088 45.2464 38.9863 45.0551 37.6537 44.9275 36.5418 44.8199 35.8542 44.5797 35.8542 43.7077 35.8542 42.9045 36.5449 42.4261 37.7045 42.4261 39.0056 42.4261 39.6505 42.8686 39.7319 43.8213 39.7332 43.8372 39.7311 43.8532 39.7258 43.8683 39.7205 43.8833 39.7121 43.8972 39.7012 43.9089 39.6902 43.9207 39.6769 43.9301 39.6621 43.9367 39.6472 43.9432 39.6312 43.9467 39.6149 43.9469H39.088C39.0613 43.9466 39.0356 43.9375 39.0149 43.921 38.9942 43.9046 38.9798 43.8817 38.9741 43.8562 38.8479 43.3051 38.5397 43.1287 37.7056 43.1287 36.7707 43.1287 36.6619 43.4476 36.6619 43.6868 36.6619 43.9768 36.79 44.0605 38.0524 44.225 39.3148 44.3894 39.8937 44.6156 39.8937 45.4746 39.8937 46.3337 39.1541 46.834 37.8673 46.834zM43.7262 42.0155C43.7262 42.1673 43.6803 42.3157 43.5942 42.4419 43.5082 42.568 43.3858 42.6664 43.2427 42.7245 43.0996 42.7826 42.9421 42.7978 42.7901 42.7681 42.6382 42.7385 42.4986 42.6655 42.3891 42.5581 42.2795 42.4508 42.2049 42.3141 42.1747 42.1652 42.1445 42.0164 42.16 41.8621 42.2193 41.7219 42.2786 41.5817 42.379 41.4618 42.5078 41.3775 42.6366 41.2932 42.788 41.2482 42.943 41.2482 43.1505 41.2487 43.3494 41.3297 43.4962 41.4735 43.643 41.6173 43.7257 41.8122 43.7262 42.0155zM42.2868 42.0155C42.2862 42.1431 42.3243 42.268 42.3963 42.3743 42.4683 42.4806 42.5709 42.5636 42.6911 42.6127 42.8113 42.6618 42.9437 42.6748 43.0714 42.6501 43.1992 42.6253 43.3165 42.564 43.4086 42.4737 43.5007 42.3835 43.5634 42.2685 43.5886 42.1434 43.6139 42.0182 43.6006 41.8885 43.5505 41.7708 43.5004 41.653 43.4157 41.5525 43.3072 41.482 43.1986 41.4115 43.0711 41.3741 42.9409 41.3747 42.768 41.3755 42.6024 41.443 42.48 41.5626 42.3576 41.6822 42.2882 41.8442 42.2868 42.0135V42.0155zM42.649 41.587H42.9541C43.0559 41.587 43.2593 41.587 43.2593 41.8152 43.2629 41.8641 43.248 41.9126 43.2174 41.9514 43.1868 41.9902 43.1427 42.0166 43.0935 42.0255 43.2135 42.0345 43.2217 42.1112 43.239 42.2248 43.2433 42.3022 43.2583 42.3786 43.2837 42.452H43.0966C43.0966 42.4112 43.063 42.1919 43.063 42.18 43.0518 42.1311 43.0345 42.1072 42.9725 42.1072H42.8188V42.452H42.649V41.587zM42.8148 41.9647H42.9541C42.9713 41.9668 42.9887 41.9651 43.0052 41.9599 43.0217 41.9546 43.0367 41.9459 43.0493 41.9343 43.062 41.9227 43.0718 41.9085 43.0782 41.8927 43.0846 41.877 43.0874 41.86 43.0864 41.8431 43.0864 41.7255 43.003 41.7255 42.9582 41.7255H42.8168L42.8148 41.9647z"/><path fill="#fff" fill-rule="evenodd" d="M24.0269 32.024C24.0271 31.9341 24.0031 31.8459 23.9574 31.768 23.9117 31.6902 23.8458 31.6255 23.7665 31.5805L19.4554 29.1519C19.3833 29.1105 19.3018 29.0876 19.2184 29.0851H19.1736C19.0902 29.088 19.0088 29.1109 18.9366 29.1519L14.6296 31.5805C14.5503 31.6256 14.4846 31.6904 14.4389 31.7682 14.3932 31.846 14.3692 31.9342 14.3691 32.024L14.3783 38.5654C14.378 38.61 14.3899 38.6539 14.4128 38.6925 14.4357 38.7311 14.4687 38.7629 14.5085 38.7847 14.5473 38.8081 14.5921 38.8206 14.6377 38.8206 14.6833 38.8206 14.728 38.8081 14.7669 38.7847L17.3273 37.3506C17.4064 37.3055 17.472 37.241 17.5177 37.1634 17.5634 37.0857 17.5875 36.9977 17.5877 36.9081V33.8507C17.5875 33.7611 17.6114 33.6731 17.6572 33.5955 17.7029 33.518 17.7688 33.4537 17.8481 33.4092L18.9386 32.7943C19.0175 32.7488 19.1075 32.7251 19.199 32.7255 19.29 32.7249 19.3793 32.7487 19.4574 32.7943L20.5479 33.4092C20.627 33.4539 20.6927 33.5183 20.7384 33.5958 20.7841 33.6733 20.8082 33.7612 20.8083 33.8507V36.9061C20.8083 36.9961 20.8323 37.0844 20.878 37.1624 20.9237 37.2404 20.9894 37.3053 21.0687 37.3506L23.6261 38.7847C23.6651 38.8081 23.71 38.8205 23.7558 38.8205 23.8016 38.8205 23.8465 38.8081 23.8855 38.7847 23.9248 38.7625 23.9575 38.7306 23.9802 38.6921 24.0029 38.6536 24.0148 38.6099 24.0147 38.5654L24.0269 32.024zM44.7576 23.0319C44.7179 23.0104 44.6732 22.9994 44.6279 23 44.5826 23.0006 44.5382 23.0128 44.4992 23.0353 44.4601 23.0579 44.4278 23.09 44.4053 23.1286 44.3828 23.1671 44.371 23.2108 44.371 23.2552V29.7328C44.371 29.7642 44.3626 29.7951 44.3466 29.8223 44.3306 29.8494 44.3076 29.872 44.2798 29.8877 44.2521 29.9033 44.2206 29.9116 44.1885 29.9115 44.1565 29.9114 44.125 29.9031 44.0974 29.8873L43.0191 29.2784C42.9399 29.2336 42.8501 29.2101 42.7587 29.2101 42.6672 29.2101 42.5774 29.2336 42.4982 29.2784L38.1882 31.715C38.1091 31.7598 38.0434 31.8242 37.9978 31.9017 37.9521 31.9792 37.9279 32.067 37.9277 32.1565V37.0317C37.9279 37.1212 37.9521 37.209 37.9978 37.2865 38.0434 37.364 38.1091 37.4284 38.1882 37.4732L42.4982 39.9118C42.5773 39.9569 42.6672 39.9806 42.7587 39.9806 42.8501 39.9806 42.94 39.9569 43.0191 39.9118L47.3281 37.4732C47.4071 37.4283 47.4726 37.3639 47.5181 37.2864 47.5636 37.2089 47.5876 37.1211 47.5875 37.0317V24.8796C47.5882 24.7895 47.5645 24.7009 47.519 24.6227 47.4734 24.5444 47.4076 24.4794 47.3281 24.4341L44.7576 23.0319zM44.3578 35.4302C44.3578 35.4525 44.3518 35.4744 44.3404 35.4937 44.3289 35.5129 44.3125 35.5289 44.2927 35.5398L42.8136 36.376C42.7938 36.3873 42.7714 36.3932 42.7485 36.3932 42.7256 36.3932 42.7031 36.3873 42.6834 36.376L41.2033 35.5398C41.1835 35.5289 41.167 35.5129 41.1556 35.4937 41.1441 35.4744 41.1381 35.4525 41.1382 35.4302V33.756C41.138 33.7336 41.144 33.7115 41.1554 33.692 41.1669 33.6726 41.1834 33.6565 41.2033 33.6454L42.6834 32.8083C42.7031 32.797 42.7256 32.791 42.7485 32.791 42.7714 32.791 42.7938 32.797 42.8136 32.8083L44.2927 33.6454C44.3126 33.6565 44.3291 33.6726 44.3405 33.692 44.3519 33.7115 44.3579 33.7336 44.3578 33.756V35.4302zM59.1108 33.7122C59.1895 33.6671 59.2547 33.6026 59.3 33.5251 59.3454 33.4477 59.3692 33.36 59.3692 33.2707V32.0897C59.3692 32.0005 59.3453 31.9128 59.2997 31.8354 59.2542 31.7581 59.1887 31.6939 59.1098 31.6493L54.8271 29.2126C54.748 29.1679 54.6582 29.1443 54.5667 29.1443 54.4753 29.1443 54.3855 29.1679 54.3063 29.2126L49.9972 31.6493C49.9181 31.694 49.8524 31.7584 49.8067 31.8358 49.761 31.9133 49.7369 32.0012 49.7368 32.0907V36.964C49.7368 37.0541 49.7612 37.1426 49.8075 37.2205 49.8538 37.2984 49.9203 37.3629 50.0003 37.4074L54.2819 39.7992C54.3595 39.842 54.4471 39.8644 54.5362 39.8644 54.6253 39.8644 54.7129 39.842 54.7905 39.7992L57.3804 38.389C57.4204 38.3666 57.4536 38.3343 57.4767 38.2952 57.4998 38.2562 57.5119 38.2119 57.5119 38.1668 57.5119 38.1217 57.4998 38.0774 57.4767 38.0384 57.4536 37.9994 57.4204 37.967 57.3804 37.9446L53.0439 35.507C53.0043 35.4845 52.9715 35.4522 52.9486 35.4134 52.9258 35.3746 52.9137 35.3305 52.9137 35.2857V33.763C52.9137 33.7183 52.9258 33.6744 52.9486 33.6357 52.9715 33.5971 53.0043 33.565 53.0439 33.5427L54.3979 32.7764C54.4374 32.7539 54.4823 32.742 54.5281 32.742 54.5738 32.742 54.6187 32.7539 54.6583 32.7764L56.0082 33.5387C56.0477 33.561 56.0806 33.5931 56.1034 33.6317 56.1263 33.6704 56.1384 33.7143 56.1384 33.759V34.9589C56.1382 35.0037 56.1501 35.0478 56.173 35.0867 56.1958 35.1255 56.2287 35.1578 56.2684 35.1801 56.3081 35.2025 56.3531 35.2142 56.3988 35.214 56.4446 35.2138 56.4895 35.2018 56.529 35.1791L59.1108 33.7122z" clip-rule="evenodd"/><path fill="#fff" fill-rule="evenodd" d="M54.5038 33.4839C54.5193 33.4752 54.5368 33.4706 54.5547 33.4706 54.5725 33.4706 54.5901 33.4752 54.6055 33.4839L55.4326 33.9513C55.4476 33.9601 55.4601 33.9724 55.4688 33.9873 55.4776 34.0021 55.4822 34.0189 55.4824 34.036V34.9718C55.4822 34.9889 55.4776 35.0057 55.4688 35.0206 55.4601 35.0354 55.4476 35.0478 55.4326 35.0565L54.6055 35.5239C54.5901 35.5327 54.5725 35.5373 54.5547 35.5373 54.5368 35.5373 54.5193 35.5327 54.5038 35.5239L53.6768 35.0585C53.6618 35.0498 53.6493 35.0374 53.6405 35.0226 53.6318 35.0077 53.6271 34.9909 53.627 34.9738V34.038C53.6271 34.0209 53.6318 34.0041 53.6405 33.9893 53.6493 33.9744 53.6618 33.962 53.6768 33.9533L54.5038 33.4839zM31.2366 29.2375C31.1581 29.193 31.069 29.1696 30.9783 29.1696 30.8875 29.1696 30.7984 29.193 30.7199 29.2375L26.4332 31.6602C26.3546 31.7049 26.2894 31.769 26.244 31.8461 26.1987 31.9232 26.1748 32.0107 26.1748 32.0997V36.952C26.1748 37.041 26.1987 37.1284 26.244 37.2055 26.2894 37.2827 26.3546 37.3468 26.4332 37.3914L30.7189 39.8161C30.7977 39.8607 30.8872 39.8842 30.9783 39.8842 31.0693 39.8842 31.1588 39.8607 31.2376 39.8161L35.5223 37.3914C35.6009 37.3468 35.6661 37.2827 35.7114 37.2055 35.7568 37.1284 35.7807 37.041 35.7807 36.952V32.0997C35.7807 32.0107 35.7568 31.9232 35.7114 31.8461 35.6661 31.769 35.6009 31.7049 35.5223 31.6602L31.2366 29.2375z" clip-rule="evenodd"/><path fill="#fff" d="M35.528 31.6602L31.2321 29.2375C31.1899 29.2141 31.1448 29.1964 31.0978 29.1847L26.271 37.2728C26.3126 37.3188 26.3614 37.3582 26.4154 37.3894L30.7204 39.8141C30.7805 39.8477 30.8467 39.8693 30.9153 39.8776 30.984 39.886 31.0536 39.881 31.1202 39.8629L35.6439 31.7479C35.6097 31.7134 35.5706 31.6839 35.528 31.6602zM30.5761 28.3466L30.5171 28.3794H30.5954L30.5761 28.3466z"/><path fill="#fff" d="M35.5327 37.3893C35.6572 37.3185 35.7482 37.2025 35.786 37.0665L31.0741 29.1786C30.9497 29.1537 30.8203 29.1739 30.7099 29.2354L26.4375 31.6441 31.0517 39.8768C31.1183 39.8677 31.1825 39.8464 31.2409 39.814L35.5327 37.3893zM35.9318 37.3108L35.9033 37.2639V37.3267L35.9318 37.3108z"/><path fill="#fff" d="M35.5332 37.3895L31.2424 39.8141C31.1839 39.8465 31.1198 39.8678 31.0532 39.8769L31.1387 40.0294L35.9035 37.3267V37.2639L35.7865 37.0646C35.7492 37.2014 35.6581 37.3182 35.5332 37.3895Z"/><path fill="#fff" d="M35.5332 37.3895L31.2424 39.8141C31.1839 39.8465 31.1198 39.8678 31.0532 39.8769L31.1387 40.0294L35.9035 37.3267V37.2639L35.7865 37.0646C35.7492 37.2014 35.6581 37.3182 35.5332 37.3895Z"/><defs><linearGradient id="a" x1="-4.921" x2="73.845" y1="-2.351" y2="73.476" gradientUnits="userSpaceOnUse"><stop stop-color="#3CD89D"/><stop offset="1" stop-color="#82C444"/></linearGradient></defs></svg>